<?xml version="1.0" standalone="no"?>
<!DOCTYPE svg PUBLIC "-//W3C//DTD SVG 1.1//EN" "http://www.w3.org/Graphics/SVG/1.1/DTD/svg11.dtd" >
<svg xmlns="http://www.w3.org/2000/svg">
<metadata>Generated by IcoMoon</metadata>
<defs>
<font id="icomoon" horiz-adv-x="1024">
<font-face units-per-em="1024" ascent="960" descent="-64" />
<missing-glyph horiz-adv-x="1024" />
<glyph unicode="&#x20;" horiz-adv-x="512" d="" />
<glyph unicode="&#xe900;" glyph-name="send-plane-fill" d="M83.032 562.542c-22.295 7.432-22.471 19.422 0.459 27.066l814.344 271.448c22.549 7.516 35.482-5.105 29.163-27.218l-232.67-814.347c-6.443-22.545-19.439-23.33-28.966-1.894l-153.365 345.071 256 341.331-341.332-255.998-343.631 114.542z" />
<glyph unicode="&#xe901;" glyph-name="mail-send-line" d="M896 832c23.565 0 42.667-19.103 42.667-42.667v-682.948c0-23.407-19.426-42.385-42.317-42.385h-768.7c-23.371 0-42.317 18.982-42.317 42.385v42.948h768v499.2l-341.333-307.2-426.667 384v64c0 23.564 19.103 42.667 42.667 42.667h768zM341.333 320v-85.333h-341.333v85.333h341.333zM213.333 533.333v-85.333h-213.333v85.333h213.333zM834.812 746.667h-645.622l322.81-290.53 322.812 290.53z" />
<glyph unicode="&#xe902;" glyph-name="map-pin-2-line" d="M512-52.39l-271.529 271.526c-149.961 149.965-149.961 393.098 0 543.060s393.095 149.961 543.060 0c149.961-149.961 149.961-393.095 0-543.060l-271.531-271.526zM723.187 279.479c116.638 116.634 116.638 305.74 0 422.377-116.634 116.637-305.74 116.637-422.377 0s-116.637-305.743 0-422.377l211.189-211.191 211.187 211.191zM512 405.333c-47.13 0-85.333 38.204-85.333 85.333 0 47.128 38.204 85.333 85.333 85.333s85.333-38.205 85.333-85.333c0-47.13-38.204-85.333-85.333-85.333z" />
<glyph unicode="&#xe903;" glyph-name="arrow-right-long-fill" d="M85.322 405.338l-0.006 85.329h579.678v231.005l273.673-273.672-273.673-273.673v231.006l-579.672 0.004z" />
<glyph unicode="&#xe904;" glyph-name="eye-line" d="M512.013 832c230.063 0 421.466-165.536 461.594-384-40.128-218.462-231.531-384-461.594-384-230.066 0-421.468 165.538-461.596 384 40.128 218.464 231.53 384 461.596 384zM512.013 149.333c180.719 0 335.36 125.781 374.502 298.667-39.142 172.884-193.783 298.667-374.502 298.667-180.723 0-335.363-125.783-374.508-298.667 39.144-172.885 193.784-298.667 374.508-298.667zM512.013 256c-106.040 0-192.002 85.961-192.002 192s85.961 192 192.002 192c106.035 0 192-85.961 192-192s-85.965-192-192-192zM512.013 341.333c58.91 0 106.667 47.757 106.667 106.667s-47.757 106.667-106.667 106.667c-58.91 0-106.668-47.757-106.668-106.667s47.759-106.667 106.668-106.667z" />
<glyph unicode="&#xe905;" glyph-name="external-link-line" d="M426.667 704v-85.333h-213.333v-469.333h469.333v213.333h85.333v-256c0-23.565-19.102-42.667-42.667-42.667h-554.667c-23.564 0-42.667 19.102-42.667 42.667v554.667c0 23.564 19.103 42.667 42.667 42.667h256zM896 832v-341.333h-85.333l-0.004 195.712-332.493-332.548-60.34 60.339 332.459 332.497h-195.622v85.333h341.333z" />
<glyph unicode="&#xe906;" glyph-name="tools-line" d="M227.389 820.413c52.612 18.704 113.616 7.001 155.727-35.11 47.826-47.825 56.432-120.019 25.815-176.614l456.905-456.954-60.339-60.339-456.916 456.924c-56.6-30.641-128.816-22.044-176.653 25.794-42.123 42.123-53.821 103.149-35.094 155.771l95.433-95.432c24.994-24.993 65.516-24.993 90.51 0s24.994 65.516 0 90.51l-95.386 95.45zM669.73 740.048l135.765 75.424 60.339-60.34-75.426-135.764-75.426-15.085-90.509-90.509-60.339 60.339 90.509 90.51 15.087 75.425zM383.116 393.097l60.34-60.343-226.275-226.274c-16.662-16.661-43.677-16.661-60.34 0-15.472 15.475-16.577 39.872-3.316 56.619l3.316 3.721 226.274 226.278z" />
<glyph unicode="&#xe907;" glyph-name="flashlight-line" d="M554.667 576h341.333l-426.667-640v384h-298.667l384 640v-384zM469.333 490.667v161.253l-147.952-246.586h233.285v-187.494l181.888 272.828h-267.221z" />
<glyph unicode="&#xe908;" glyph-name="code-s-slash-line" d="M1024 448l-241.361-241.361-60.339 60.343 181.022 181.018-181.022 181.019 60.339 60.34 241.361-241.359zM120.68 448l181.019-181.018-60.34-60.343-241.359 241.361 241.359 241.359 60.34-60.34-181.019-181.019zM417.641 64h-90.81l279.531 768h90.807l-279.529-768z" />
<glyph unicode="&#xe909;" glyph-name="magic-line" d="M648.474 535.703c-18.505 17.526-30.409 40.889-33.711 66.16l-17.19 131.518-116.506-63.397c-22.387-12.181-48.286-16.283-73.341-11.616l-130.394 24.291 24.291-130.394c4.668-25.056 0.566-50.955-11.616-73.338l-63.397-116.506 131.518-17.19c25.271-3.307 48.634-15.211 66.161-33.711l91.212-96.299 56.99 119.77c10.953 23.014 29.491 41.553 52.506 52.506l119.77 56.99-96.294 91.214zM649.549 298.33l-94.409-198.409c-6.076-12.766-21.35-18.189-34.116-12.113-2.846 1.353-5.419 3.221-7.586 5.508l-151.1 159.522c-4.045 4.271-9.436 7.019-15.268 7.778l-217.868 28.48c-14.019 1.83-23.898 14.682-22.066 28.702 0.408 3.123 1.391 6.148 2.897 8.917l105.020 192.998c2.811 5.167 3.758 11.145 2.681 16.925l-40.241 216.005c-2.589 13.9 6.579 27.266 20.479 29.856 3.099 0.577 6.278 0.577 9.377 0l216.006-40.241c5.783-1.077 11.76-0.131 16.923 2.681l192.998 105.020c12.42 6.758 27.968 2.168 34.722-10.25 1.51-2.769 2.492-5.792 2.897-8.918l28.48-217.868c0.764-5.832 3.511-11.223 7.778-15.267l159.522-151.098c10.266-9.724 10.705-25.929 0.981-36.194-2.167-2.287-4.74-4.156-7.586-5.508l-198.404-94.413c-5.312-2.526-9.591-6.805-12.117-12.113zM683.546 216.107l60.339 60.339 181.022-181.018-60.339-60.339-181.022 181.018z" />
<glyph unicode="&#xe90a;" glyph-name="smartphone-line" d="M298.667 789.333v-682.667h426.667v682.667h-426.667zM256 874.667h512c23.565 0 42.667-19.103 42.667-42.667v-768c0-23.565-19.102-42.667-42.667-42.667h-512c-23.564 0-42.667 19.102-42.667 42.667v768c0 23.564 19.103 42.667 42.667 42.667zM512 234.667c23.565 0 42.667-19.102 42.667-42.667s-19.102-42.667-42.667-42.667c-23.565 0-42.667 19.102-42.667 42.667s19.102 42.667 42.667 42.667z" />
<glyph unicode="&#xe90b;" glyph-name="layout-masonry-line" d="M938.667 106.667c0-23.565-19.102-42.667-42.667-42.667h-768c-23.564 0-42.667 19.102-42.667 42.667v682.667c0 23.564 19.103 42.667 42.667 42.667h768c23.565 0 42.667-19.103 42.667-42.667v-682.667zM469.333 320h-298.667v-170.667h298.667v170.667zM853.333 490.667h-298.667v-341.333h298.667v341.333zM469.333 746.667h-298.667v-341.333h298.667v341.333zM853.333 746.667h-298.667v-170.667h298.667v170.667z" />
<glyph unicode="&#xe90c;" glyph-name="tiktok-fill" d="M682.667 608.198v-309.531c0-153.169-124.164-277.333-277.333-277.333-153.167 0-277.333 124.164-277.333 277.333s124.166 277.333 277.333 277.333c22.029 0 43.456-2.568 64-7.421v-134.949c-19.396 9.216-41.097 14.37-64 14.37-82.475 0-149.333-66.859-149.333-149.333s66.859-149.333 149.333-149.333c82.475 0 149.333 66.859 149.333 149.333v576h128c0-117.821 95.514-213.333 213.333-213.333v-128c-80.721 0-154.897 28.020-213.333 74.864z" />
<glyph unicode="&#xe90d;" glyph-name="linkedin-fill" d="M296.127 746.67c-0.016-34.744-21.094-66.009-53.297-79.053s-69.097-5.262-93.288 19.677c-24.191 24.939-30.846 62.054-16.828 93.844s45.911 51.907 80.639 50.865c46.126-1.385 82.794-39.187 82.773-85.333zM298.687 598.19h-170.667v-534.185h170.667v534.185zM568.341 598.19h-169.814v-534.185h168.108v280.32c0 156.16 203.52 170.667 203.52 0v-280.32h168.533v338.347c0 263.252-301.227 253.439-372.053 124.16l1.707 71.679z" />
<glyph unicode="&#xe90e;" glyph-name="github-line" d="M251.051 164.126c-12.799 8.563-23.814 19.447-36.698 34.833-4.658 5.564-23.512 29.205-19.874 24.687-19.745 24.533-32.22 35.895-45.079 40.508-22.181 7.953-33.713 32.384-25.759 54.562 7.955 22.182 32.384 33.715 54.566 25.762 32.113-11.52 53.835-31.351 83.095-67.755-4.011 4.988 14.481-18.206 18.477-22.98 8.129-9.707 14.080-15.586 18.73-18.697 8.742-5.854 25.097-8.375 49.101-5.973 1.005 16.307 4.022 32.119 8.623 46.733-126.644 30.95-198.316 112.666-198.316 272.9 0 52.858 15.754 100.513 45.142 140.455-9.287 38.139-7.887 84.265 12.875 136.168 4.761 11.903 14.621 21.034 26.854 24.868 3.503 1.015 5.444 1.466 8.895 1.996 34.257 5.261 82.643-7.267 145.737-46.79 36.971 8.728 75.691 13.157 114.633 13.157 38.899 0 77.585-4.42 114.526-13.132 62.997 39.798 111.497 52.321 145.997 46.774 3.614-0.581 6.711-1.336 9.289-2.182 11.989-3.936 21.619-12.976 26.304-24.691 20.757-51.891 22.161-98.009 12.881-136.143 29.478-39.943 45.137-87.248 45.137-140.48 0-160.303-71.433-241.711-198.076-272.738 5.329-17.707 8.141-37.483 8.141-58.884 0-28.348-0.107-55.42-0.307-85.777-0.051-8.115-0.115-16.785-0.209-30.106 16.017-3.533 29.244-16.196 32.666-33.314 4.621-23.104-10.364-45.585-33.472-50.206-48.606-9.719-84.621 22.69-84.621 65.045 0 3.853 0.030 9.361 0.094 19.055 0.098 13.355 0.158 21.995 0.213 30.084 0.196 30.187 0.303 57.079 0.303 85.218 0 29.751-7.817 49.148-18.172 58.074-28.203 24.311-13.909 70.558 23.095 74.714 126.566 14.221 185.011 63.241 185.011 198.835 0 40.731-13.308 74.411-38.959 102.576-11.008 12.086-14.14 29.397-8.068 44.575 7.070 17.674 10.086 40.833 4.058 68.858l-0.401-0.113c-20.988-5.938-47.373-18.778-79.3-40.483-10.415-7.078-23.42-9.195-35.537-5.787-34.999 9.843-72.614 14.896-110.592 14.896-37.982 0-75.597-5.053-110.594-14.896-12.055-3.39-24.991-1.314-35.379 5.68-32.11 21.616-58.64 34.441-79.752 40.416-6.12-27.87-3.1-50.947 3.95-68.57 6.071-15.177 2.937-32.489-8.070-44.575-25.475-27.973-38.958-62.215-38.958-102.576 0-135.334 58.5-184.687 184.399-198.835 36.919-4.147 51.268-50.219 23.232-74.594-8.209-7.142-18.308-31.232-18.308-58.193v-134.357c0-42.082-35.62-73.634-83.61-65.233-23.212 4.062-38.735 26.172-34.673 49.382 3.078 17.587 16.52 30.763 32.951 34.347v42.219c-38.832-2.615-70.906 3.767-96.188 20.685z" />
<glyph unicode="&#xe90f;" glyph-name="facebook-fill" d="M597.333 384h106.667l42.667 170.667h-149.333v85.333c0 43.92 0 85.333 85.333 85.333h64v143.356c-13.897 1.845-66.432 5.978-121.903 5.978-115.819 0-198.097-70.693-198.097-200.521v-119.479h-128v-170.667h128v-362.667h170.667v362.667z" />
<glyph unicode="&#xe910;" glyph-name="arrow-right-up-line" d="M682.825 558.327l-367.214-367.215-60.34 60.339 367.215 367.215h-323.66v85.333h469.332v-469.333h-85.333v323.66z" />
<glyph unicode="&#xe911;" glyph-name="phone-line" d="M399.597 504.23c39.955-70.259 98.374-128.678 168.633-168.631l37.739 52.834c12.548 17.562 36.233 22.989 55.177 12.642 60.023-32.789 126.357-52.715 195.554-58.193 22.191-1.758 39.3-20.275 39.3-42.534v-190.413c0-21.875-16.546-40.205-38.306-42.441-22.609-2.325-45.419-3.494-68.361-3.494-365.244 0-661.333 296.090-661.333 661.333 0 22.943 1.17 45.751 3.494 68.362 2.236 21.76 20.567 38.304 42.443 38.304h190.412c22.258 0 40.777-17.111 42.534-39.3 5.477-69.196 25.404-135.533 58.193-195.556 10.347-18.942 4.919-42.628-12.642-55.174l-52.836-37.74zM292.021 532.258l81.065 57.903c-22.986 49.619-38.738 102.24-46.802 156.505h-112.563c-0.258-7.096-0.387-14.208-0.387-21.333 0-318.114 257.886-576 576-576 7.125 0 14.238 0.128 21.333 0.388v112.563c-54.263 8.064-106.884 23.817-156.506 46.801l-57.903-81.067c-23.424 9.101-46.046 19.81-67.729 31.987l-2.479 1.412c-83.61 47.543-153.086 117.022-200.631 200.631l-1.411 2.479c-12.179 21.683-22.886 44.305-31.987 67.729z" />
<glyph unicode="&#xe912;" glyph-name="close-line" d="M511.987 508.309l211.191 211.191 60.339-60.34-211.191-211.19 211.191-211.187-60.339-60.339-211.191 211.187-211.189-211.187-60.34 60.339 211.19 211.187-211.19 211.19 60.34 60.34 211.189-211.191z" />
<glyph unicode="&#xe913;" glyph-name="menu-line" d="M128 789.333h768v-85.333h-768v85.333zM128 490.667h768v-85.333h-768v85.333zM128 192h768v-85.333h-768v85.333z" />
<glyph unicode="&#xe914;" glyph-name="user-voice-line" d="M42.667 21.333c0 188.514 152.82 341.333 341.333 341.333s341.333-152.819 341.333-341.333h-85.333c0 141.385-114.615 256-256 256s-256-114.615-256-256h-85.333zM384 405.333c-141.44 0-256 114.56-256 255.999s114.56 256 256 256c141.44 0 256-114.56 256-256s-114.56-255.999-256-255.999zM384 490.667c94.293 0 170.667 76.372 170.667 170.666s-76.373 170.667-170.667 170.667c-94.293 0-170.667-76.373-170.667-170.667s76.373-170.666 170.667-170.666zM919.364 926.568c39.667-79.912 61.969-169.97 61.969-265.235s-22.302-185.322-61.969-265.236l-70.182 51.046c30.054 65.165 46.818 137.719 46.818 214.19s-16.764 149.027-46.818 214.192l70.182 51.043zM778.509 824.128c20.723-50.165 32.158-105.145 32.158-162.795s-11.435-112.629-32.158-162.794l-71.548 52.034c11.908 34.731 18.372 71.991 18.372 110.76s-6.464 76.029-18.372 110.76l71.548 52.035z" />
</font>
</defs>
</svg>
